<svg width="16" height="16" viewBox="0 0 16 16" fill="none" xmlns="http://www.w3.org/2000/svg">
    <g clip-path="url(#clip0_310_391)">
        <g>
            <path fill-rule="evenodd" clip-rule="evenodd"
                d="M12.2188 0C12.5104 0 12.8021 0 13.0938 0C14.7188 0.3125 15.6875 1.28125 16 2.90625C16 3.19791 16 3.48959 16 3.78125C15.8989 4.42103 15.6437 4.99394 15.2344 5.5C13.7188 7.01562 12.2031 8.53125 10.6875 10.0469C9.6645 10.8389 8.5395 11.0264 7.3125 10.6094C6.84206 10.42 6.43059 10.144 6.07812 9.78125C5.83097 9.28303 5.96119 8.92366 6.46875 8.70312C6.61684 8.68044 6.76266 8.69084 6.90625 8.73438C7.10575 8.90266 7.31406 9.05891 7.53125 9.20312C8.258 9.57909 8.96634 9.54784 9.65625 9.10938C11.1814 7.61544 12.6971 6.11025 14.2031 4.59375C14.8215 3.713 14.8007 2.84843 14.1406 2C13.2833 1.21024 12.3718 1.14253 11.4062 1.79688C10.572 2.64151 9.72828 3.47484 8.875 4.29688C8.39472 4.49788 8.05619 4.35725 7.85938 3.875C7.82159 3.67544 7.85284 3.48794 7.95312 3.3125C8.8125 2.45312 9.67188 1.59375 10.5312 0.734375C11.0323 0.343125 11.5948 0.0983322 12.2188 0Z"
                fill="currentColor" />
            <path fill-rule="evenodd" clip-rule="evenodd"
                d="M3.78125 16C3.48959 16 3.19791 16 2.90625 16C1.28125 15.6875 0.3125 14.7188 0 13.0938C0 12.8021 0 12.5104 0 12.2188C0.101059 11.579 0.356266 11.0061 0.765625 10.5C2.15625 9.10938 3.54688 7.71875 4.9375 6.32813C6.04231 5.48372 7.24022 5.32747 8.53125 5.85938C8.838 6.01009 9.11925 6.19759 9.375 6.42188C9.62547 6.63163 9.714 6.89725 9.64062 7.21875C9.45853 7.62481 9.15125 7.76544 8.71875 7.64063C8.48959 7.47397 8.26041 7.30728 8.03125 7.14063C7.32034 6.79947 6.63284 6.84116 5.96875 7.26563C4.56856 8.63456 3.17794 10.0148 1.79688 11.4062C1.17043 12.3053 1.20168 13.1803 1.89062 14.0312C2.68325 14.7501 3.54263 14.8386 4.46875 14.2969C5.22916 13.5573 5.98959 12.8177 6.75 12.0781C7.33628 11.8658 7.68003 12.0638 7.78125 12.6719C7.78294 12.8127 7.74647 12.9429 7.67188 13.0625C6.94791 13.7865 6.22397 14.5104 5.5 15.2344C4.99394 15.6437 4.42103 15.8989 3.78125 16Z"
                fill="currentColor" />
        </g>
    </g>
    <defs>
        <clipPath id="clip0_310_391">
            <rect width="16" height="16" fill="currentColor" />
        </clipPath>
    </defs>
</svg>