<svg width="56" height="56" viewBox="0 0 56 56" fill="none" xmlns="http://www.w3.org/2000/svg">
    <path
        d="M27.9728 48C25.9443 48 24.0968 47.5505 22.4305 46.6515C20.8004 45.7165 19.5144 44.4398 18.5726 42.8216C17.667 41.1674 17.2142 39.2794 17.2142 37.1577V19.0871C17.2142 18.26 17.015 17.5228 16.6165 16.8755C16.218 16.1923 15.6747 15.6528 14.9864 15.2573C14.3344 14.8617 13.6099 14.6639 12.8129 14.6639C12.016 14.6639 11.2915 14.8617 10.6395 15.2573C9.98746 15.6528 9.4622 16.1923 9.06374 16.8755C8.66527 17.5228 8.46604 18.26 8.46604 19.0871V47.4066H2V19.8963C2 17.8465 2.4528 16.0124 3.35841 14.3942C4.26401 12.74 5.53188 11.4274 7.16197 10.4564C8.79207 9.48547 10.6757 9 12.8129 9C14.9864 9 16.8882 9.48547 18.5183 10.4564C20.1484 11.4274 21.4162 12.74 22.3218 14.3942C23.2274 16.0124 23.6802 17.8465 23.6802 19.8963V37.9668C23.6802 38.7579 23.8795 39.4952 24.278 40.1784C24.6764 40.8257 25.2017 41.3472 25.8537 41.7427C26.5057 42.1383 27.2121 42.3361 27.9728 42.3361C28.7698 42.3361 29.4942 42.1383 30.1463 41.7427C30.7983 41.3472 31.3236 40.8257 31.722 40.1784C32.1205 39.4952 32.3198 38.7579 32.3198 37.9668V19.8963C32.3198 17.8465 32.7726 16.0124 33.6782 14.3942C34.5838 12.74 35.8516 11.4274 37.4817 10.4564C39.148 9.48547 41.0498 9 43.187 9C45.3605 9 47.2442 9.48547 48.838 10.4564C50.4681 11.4274 51.736 12.74 52.6416 14.3942C53.5472 16.0124 54 17.8465 54 19.8963V47.4066H47.4796V19.0871C47.4796 18.26 47.2804 17.5228 46.8819 16.8755C46.5197 16.1923 46.0125 15.6528 45.3605 15.2573C44.7084 14.8617 43.984 14.6639 43.187 14.6639C42.3901 14.6639 41.6475 14.8617 40.9593 15.2573C40.3072 15.6528 39.782 16.1923 39.3835 16.8755C38.985 17.5228 38.7858 18.26 38.7858 19.0871V37.1577C38.7858 39.2794 38.3149 41.1674 37.3731 42.8216C36.4312 44.4398 35.1452 45.7165 33.5151 46.6515C31.9213 47.5505 30.0738 48 27.9728 48Z"
        fill="url(#paint0_linear_352_1221)" />
    <defs>
        <linearGradient id="paint0_linear_352_1221" x1="2" y1="28.7053" x2="55.1252" y2="44.1226"
            gradientUnits="userSpaceOnUse">
            <stop stop-color="#2593E2" />
            <stop offset="1" stop-color="#AEFFC0" />
        </linearGradient>
    </defs>
</svg>