<svg width="16" height="16" viewBox="0 0 16 16" fill="none" xmlns="http://www.w3.org/2000/svg">
<path d="M1.5 10.75V15.25C1.5 15.6642 1.83579 16 2.25 16C2.66421 16 3 15.6642 3 15.25V10.75C3 10.3358 2.66421 10 2.25 10C1.83579 10 1.5 10.3358 1.5 10.75Z" fill="#1F1F1F"/>
<path d="M7.22222 1.77778V15.2222C7.22222 15.6518 7.57045 16 8 16C8.42955 16 8.77778 15.6518 8.77778 15.2222V1.77778C8.77778 1.34822 8.42955 1 8 1C7.57045 1 7.22222 1.34822 7.22222 1.77778Z" fill="#1F1F1F"/>
<path d="M13 6.75V15.25C13 15.6642 13.3358 16 13.75 16C14.1642 16 14.5 15.6642 14.5 15.25V6.75C14.5 6.33579 14.1642 6 13.75 6C13.3358 6 13 6.33579 13 6.75Z" fill="#1F1F1F"/>
</svg>
