<svg width="16" height="16" viewBox="0 0 16 16" fill="none" xmlns="http://www.w3.org/2000/svg">
<g clip-path="url(#clip0_617_444)">
<path opacity="0.972" fill-rule="evenodd" clip-rule="evenodd" d="M3.14063 -0.015625C6.36978 -0.015625 9.59897 -0.015625 12.8281 -0.015625C13.4487 0.161152 13.8289 0.567403 13.9688 1.20312C13.9896 5.82812 13.9896 10.4531 13.9688 15.0781C13.8339 15.5411 13.5371 15.8432 13.0781 15.9844C12.8906 15.9844 12.7031 15.9844 12.5156 15.9844C12.3539 15.9243 12.1976 15.8462 12.0469 15.75C10.849 14.5521 9.65103 13.3542 8.45313 12.1562C8.15884 11.9411 7.85675 11.9307 7.54688 12.125C6.33853 13.3333 5.13022 14.5417 3.92188 15.75C3.77113 15.8462 3.61488 15.9243 3.45313 15.9844C3.26563 15.9844 3.07813 15.9844 2.89063 15.9844C2.4317 15.8432 2.13483 15.5411 2 15.0781C1.97917 10.4531 1.97917 5.82812 2 1.20312C2.13977 0.567816 2.51998 0.161566 3.14063 -0.015625ZM3.80071 1.32812C6.82156 1.32292 9.19585 1.3125 12.2167 1.32812C12.4622 1.35493 12.6236 1.48514 12.701 1.71875C12.7219 6.25 12.7219 9.01562 12.701 13.5469C12.6967 14.5 12.2167 14.2167 12 14C11 13 10.1979 12.1979 9 11C8.5 10.5 7.54688 10.4531 7 11C5.80209 12.1979 5.19791 12.8021 4 14C3.82324 14.1768 3.32071 14.5 3.31634 13.5469C3.2955 9.00522 3.2955 6.24478 3.31634 1.70312C3.41195 1.48715 3.5734 1.36215 3.80071 1.32812Z" fill="#1F1F1F"/>
</g>
<defs>
<clipPath id="clip0_617_444">
<rect width="16" height="16" fill="white"/>
</clipPath>
</defs>
</svg>
