<svg width="16" height="16" viewBox="0 0 16 16" fill="none" xmlns="http://www.w3.org/2000/svg">
<path fill-rule="evenodd" clip-rule="evenodd" d="M6.51262 5.00173C8.20377 4.99717 12.8089 4.98807 14.5 5.00171C15 5.00574 15 5.29822 15 5.5C15 5.70178 15 6 14.5 6C12.8452 6.01819 8.15475 6.01819 6.49999 6C6 5.9945 5.99482 5.6913 5.99999 5.50002C6.00517 5.30873 5.99999 5.00311 6.51262 5.00173Z" fill="currentColor"/>
<path fill-rule="evenodd" clip-rule="evenodd" d="M1.5 7.99998C4.30035 7.99543 11.6997 7.98635 14.5 7.99999C15 7.99999 15 8.30858 15 8.49999C15 8.72015 15 8.99999 14.5 8.99999C11.6996 9.01818 4.40616 8.99998 1.60575 8.99999C0.999996 8.99999 0.999996 8.73828 0.999996 8.5C0.999996 8.26171 0.998028 7.99998 1.5 7.99998Z" fill="currentColor"/>
<path fill-rule="evenodd" clip-rule="evenodd" d="M1.49994 11C3.15472 10.9955 5.84527 10.9864 7.5 11C8 11 8 11.2746 8 11.5C8 11.7254 8 12 7.5 12C5.80888 12.0182 3.19105 12.0182 1.49994 12C0.999939 11.9946 0.999939 11.7098 0.999939 11.5C0.999939 11.2902 0.999939 11.0014 1.49994 11Z" fill="currentColor"/>
</svg>
