<svg width="16" height="16" viewBox="0 0 16 16" fill="none" xmlns="http://www.w3.org/2000/svg">
<path fill-rule="evenodd" clip-rule="evenodd" d="M6.50002 2.00159C8.19116 1.99704 12.8089 2.00236 14.5 2.016C15 2.02003 15 2.31422 15 2.516C15 2.71778 15 3.00075 14.5 3.00075C12.8452 3.01894 8.15476 3.01894 6.5 3.00075C6.00001 2.99525 5.99564 2.69839 6.00081 2.50711C6.00599 2.31582 5.98739 2.00298 6.50002 2.00159Z" fill="currentColor"/>
<path fill-rule="evenodd" clip-rule="evenodd" d="M1.50708 7.00467C4.30743 7.00012 11.6997 6.99103 14.5 7.00467C15 7.00467 15 7.31326 15 7.50467C15 7.72484 15 8.00468 14.5 8.00468C11.6996 8.02287 4.30749 8.00902 1.50708 8.00902C0.901329 8.00902 1.00708 7.75886 1.00708 7.52056C1.00708 7.28227 1.00512 7.00467 1.50708 7.00467Z" fill="currentColor"/>
<path fill-rule="evenodd" clip-rule="evenodd" d="M1.5 12.0155C3.15478 12.0109 4.84527 11.9828 6.5 11.9964C7 11.9964 7 12.271 7 12.4964C7 12.7219 7 13 6.5 13C4.80888 13.0182 3.19112 13.0265 1.5 13.0083C1 13.0029 1 12.7235 1 12.5136C1 12.3038 1 12.0169 1.5 12.0155Z" fill="currentColor"/>
</svg>
