<svg xmlns="http://www.w3.org/2000/svg" width="16" height="16" fill="currentColor" viewBox="0 0 16 16">
  <path d="M9.696 5.026c.077-.05.322-.017.43 0a78.32 78.32 0 0 1 2.79 2.64c.16.361.09.662-.207.903a100.15 100.15 0 0 0-2.232 2.146 2.08 2.08 0 0 1-.35.272c-.527.074-.756-.17-.687-.732.067-.14.157-.258.271-.358.478-.43.945-.873 1.404-1.328-3.434-.012-7.17.011-10.605 0C.195 8.568 0 8.429 0 8c0-.428.243-.52.51-.521l10.605-.034a53.086 53.086 0 0 1-1.61-1.55c-.17-.379-.134-.66.19-.869Z"/>
  <path d="m8.325 0 5.313.043c1.313.344 2.1 1.125 2.359 2.457v11c-.187 1.082-.775 1.797-1.766 2.267a3.1 3.1 0 0 1-.78.219H8.324c-.28-.14-.38-.364-.297-.672a.52.52 0 0 1 .297-.297l4.719-.031c.915-.072 1.535-.535 1.86-1.391a2.3 2.3 0 0 0 .093-.594c.02-2.666.02-7.339 0-10.005-.074-1.05-.62-1.7-1.64-1.953C11.68 1.003 10.002.98 8.324.98a.458.458 0 0 1-.312-.484A.485.485 0 0 1 8.325 0Z"/>
</svg>
