<svg width="200" height="30" viewBox="0 0 200 30" fill="none" xmlns="http://www.w3.org/2000/svg">
<path d="M5.82066 29.5028L13.0253 18.3978C12.5368 18.7017 12.0212 18.9227 11.4785 19.0608C10.9629 19.1713 10.4066 19.2265 9.80965 19.2265C7.82872 19.2265 6.09202 18.8122 4.59954 17.9834C3.1342 17.1271 1.99449 15.9807 1.18041 14.5442C0.393471 13.0801 0 11.4779 0 9.73757C0 7.96961 0.420607 6.35359 1.26182 4.8895C2.13017 3.39779 3.36486 2.20995 4.96588 1.32597C6.5669 0.441989 8.49355 0 10.7458 0C12.9167 0 14.8027 0.414364 16.4037 1.24309C18.0047 2.07182 19.253 3.23204 20.1484 4.72376C21.0711 6.18784 21.5324 7.85912 21.5324 9.73757C21.5324 10.953 21.3696 12.1271 21.0439 13.2597C20.7183 14.3923 20.2706 15.511 19.7007 16.616C19.158 17.721 18.4932 18.8674 17.7062 20.0552L11.4785 29.5028H5.82066ZM10.7458 15C11.9398 15 12.9846 14.7652 13.88 14.2956C14.7755 13.826 15.4539 13.2044 15.9152 12.4309C16.4037 11.6298 16.6479 10.732 16.6479 9.73757C16.6479 8.68784 16.4037 7.76243 15.9152 6.96133C15.4539 6.1326 14.7755 5.49724 13.88 5.05525C12.9846 4.58563 11.9398 4.35083 10.7458 4.35083C9.44331 4.35083 8.35787 4.59945 7.48952 5.09668C6.62117 5.59392 5.95634 6.24309 5.49503 7.0442C5.06085 7.8453 4.84377 8.72928 4.84377 9.69613C4.84377 10.6354 5.06085 11.5055 5.49503 12.3066C5.95634 13.1077 6.6076 13.7569 7.44882 14.2541C8.31717 14.7514 9.41617 15 10.7458 15Z" fill="white"/>
<path d="M35.8999 30C33.8918 30 32.0873 29.558 30.4863 28.674C28.8853 27.7901 27.6234 26.5746 26.7008 25.0276C25.7782 23.4807 25.3169 21.7541 25.3169 19.8481V10.1519C25.3169 8.24586 25.7782 6.53315 26.7008 5.01381C27.6234 3.46685 28.8853 2.25138 30.4863 1.3674C32.0873 0.455801 33.8918 0 35.8999 0C37.8808 0 39.6582 0.455801 41.2321 1.3674C42.8331 2.25138 44.095 3.46685 45.0176 5.01381C45.9402 6.53315 46.4015 8.24586 46.4015 10.1519V19.8481C46.4015 21.7541 45.9402 23.4807 45.0176 25.0276C44.095 26.547 42.8331 27.7624 41.2321 28.674C39.6582 29.558 37.8808 30 35.8999 30ZM35.8999 25.6492C36.9311 25.6492 37.8673 25.4144 38.7085 24.9447C39.5768 24.4475 40.2552 23.7845 40.7437 22.9558C41.2593 22.1271 41.5171 21.2155 41.5171 20.221V9.77901C41.5171 8.75691 41.2593 7.8453 40.7437 7.0442C40.2281 6.24309 39.5497 5.59392 38.7085 5.09668C37.8673 4.59945 36.9311 4.35083 35.8999 4.35083C34.8687 4.35083 33.9054 4.59945 33.0099 5.09668C32.1416 5.5663 31.4496 6.21547 30.934 7.0442C30.4184 7.87293 30.1607 8.78453 30.1607 9.77901V20.221C30.1607 21.2155 30.4184 22.1271 30.934 22.9558C31.4496 23.7845 32.1416 24.4475 33.0099 24.9447C33.8783 25.4144 34.8416 25.6492 35.8999 25.6492Z" fill="white"/>
<path d="M61.4798 30C59.4717 30 57.6672 29.558 56.0662 28.674C54.4651 27.7901 53.2033 26.5746 52.2807 25.0276C51.3581 23.4807 50.8968 21.7541 50.8968 19.8481V10.1519C50.8968 8.24586 51.3581 6.53315 52.2807 5.01381C53.2033 3.46685 54.4651 2.25138 56.0662 1.3674C57.6672 0.455801 59.4717 0 61.4798 0C63.4607 0 65.2381 0.455801 66.812 1.3674C68.413 2.25138 69.6748 3.46685 70.5975 5.01381C71.5201 6.53315 71.9814 8.24586 71.9814 10.1519V19.8481C71.9814 21.7541 71.5201 23.4807 70.5975 25.0276C69.6748 26.547 68.413 27.7624 66.812 28.674C65.2381 29.558 63.4607 30 61.4798 30ZM61.4798 25.6492C62.511 25.6492 63.4471 25.4144 64.2884 24.9447C65.1567 24.4475 65.8351 23.7845 66.3236 22.9558C66.8391 22.1271 67.0969 21.2155 67.0969 20.221V9.77901C67.0969 8.75691 66.8391 7.8453 66.3236 7.0442C65.808 6.24309 65.1296 5.59392 64.2884 5.09668C63.4471 4.59945 62.511 4.35083 61.4798 4.35083C60.4486 4.35083 59.4853 4.59945 58.5898 5.09668C57.7215 5.5663 57.0295 6.21547 56.5139 7.0442C55.9983 7.87293 55.7405 8.78453 55.7405 9.77901V20.221C55.7405 21.2155 55.9983 22.1271 56.5139 22.9558C57.0295 23.7845 57.7215 24.4475 58.5898 24.9447C59.4582 25.4144 60.4215 25.6492 61.4798 25.6492Z" fill="white"/>
<path d="M87.0597 30C85.0516 30 83.2471 29.558 81.646 28.674C80.045 27.7901 78.7832 26.5746 77.8606 25.0276C76.9379 23.4807 76.4766 21.7541 76.4766 19.8481V10.1519C76.4766 8.24586 76.9379 6.53315 77.8606 5.01381C78.7832 3.46685 80.045 2.25138 81.646 1.3674C83.2471 0.455801 85.0516 0 87.0597 0C89.0406 0 90.818 0.455801 92.3919 1.3674C93.9929 2.25138 95.2547 3.46685 96.1773 5.01381C97.1 6.53315 97.5613 8.24586 97.5613 10.1519V19.8481C97.5613 21.7541 97.1 23.4807 96.1773 25.0276C95.2547 26.547 93.9929 27.7624 92.3919 28.674C90.818 29.558 89.0406 30 87.0597 30ZM87.0597 25.6492C88.0908 25.6492 89.027 25.4144 89.8682 24.9447C90.7366 24.4475 91.415 23.7845 91.9034 22.9558C92.419 22.1271 92.6768 21.2155 92.6768 20.221V9.77901C92.6768 8.75691 92.419 7.8453 91.9034 7.0442C91.3878 6.24309 90.7094 5.59392 89.8682 5.09668C89.027 4.59945 88.0908 4.35083 87.0597 4.35083C86.0285 4.35083 85.0652 4.59945 84.1697 5.09668C83.3013 5.5663 82.6094 6.21547 82.0938 7.0442C81.5782 7.87293 81.3204 8.78453 81.3204 9.77901V20.221C81.3204 21.2155 81.5782 22.1271 82.0938 22.9558C82.6094 23.7845 83.3013 24.4475 84.1697 24.9447C85.038 25.4144 86.0014 25.6492 87.0597 25.6492Z" fill="white"/>
<path d="M131.471 29.9586C129.952 29.9586 128.568 29.6133 127.319 28.9227C126.098 28.2044 125.135 27.2238 124.429 25.9807C123.751 24.7099 123.412 23.2597 123.412 21.6298V7.74862C123.412 7.11326 123.263 6.54696 122.964 6.04972C122.666 5.52486 122.258 5.1105 121.743 4.80663C121.254 4.50276 120.712 4.35083 120.115 4.35083C119.518 4.35083 118.975 4.50276 118.487 4.80663C117.998 5.1105 117.605 5.52486 117.306 6.04972C117.008 6.54696 116.858 7.11326 116.858 7.74862V29.5028H112.015V8.37016C112.015 6.79558 112.354 5.38674 113.032 4.14364C113.711 2.87293 114.66 1.86464 115.882 1.11878C117.103 0.372927 118.514 0 120.115 0C121.743 0 123.168 0.372927 124.389 1.11878C125.61 1.86464 126.56 2.87293 127.238 4.14364C127.916 5.38674 128.256 6.79558 128.256 8.37016V22.2514C128.256 22.8591 128.405 23.4254 128.703 23.9503C129.002 24.4475 129.395 24.8481 129.884 25.1519C130.372 25.4558 130.901 25.6077 131.471 25.6077C132.068 25.6077 132.611 25.4558 133.099 25.1519C133.588 24.8481 133.981 24.4475 134.28 23.9503C134.578 23.4254 134.727 22.8591 134.727 22.2514V8.37016C134.727 6.79558 135.067 5.38674 135.745 4.14364C136.423 2.87293 137.373 1.86464 138.594 1.11878C139.843 0.372927 141.267 0 142.868 0C144.496 0 145.907 0.372927 147.101 1.11878C148.323 1.86464 149.272 2.87293 149.951 4.14364C150.629 5.38674 150.968 6.79558 150.968 8.37016V29.5028H146.084V7.74862C146.084 7.11326 145.935 6.54696 145.636 6.04972C145.365 5.52486 144.985 5.1105 144.496 4.80663C144.008 4.50276 143.465 4.35083 142.868 4.35083C142.271 4.35083 141.715 4.50276 141.199 4.80663C140.711 5.1105 140.317 5.52486 140.019 6.04972C139.72 6.54696 139.571 7.11326 139.571 7.74862V21.6298C139.571 23.2597 139.218 24.7099 138.513 25.9807C137.807 27.2238 136.844 28.2044 135.623 28.9227C134.429 29.6133 133.045 29.9586 131.471 29.9586Z" fill="white"/>
<path d="M155.768 29.5028V0.497236H160.612V12.5552H174.37V0.497236H179.213V29.5028H174.37V16.9475H160.612V29.5028H155.768Z" fill="white"/>
<path d="M187.545 29.5028C186.649 29.5028 185.849 29.2818 185.143 28.8398C184.438 28.3978 183.868 27.8039 183.434 27.058C183.026 26.3122 182.823 25.4972 182.823 24.6133C182.823 23.7293 183.04 22.9282 183.474 22.2099C183.908 21.4917 184.505 20.8702 185.265 20.3453L194.301 14.337C194.573 14.1989 194.736 14.047 194.79 13.8812C194.871 13.7155 194.912 13.5497 194.912 13.384C194.912 13.1354 194.817 12.9144 194.627 12.721C194.464 12.5276 194.234 12.4309 193.935 12.4309H183.841V8.37016H195.319C196.215 8.37016 197.001 8.59116 197.68 9.03315C198.385 9.47514 198.942 10.0691 199.349 10.8149C199.783 11.5608 200 12.3757 200 13.2597C200 14.1436 199.783 14.9448 199.349 15.663C198.915 16.3812 198.318 17.0028 197.558 17.5276L188.562 23.5359C188.318 23.674 188.142 23.826 188.033 23.9917C187.952 24.1575 187.911 24.3232 187.911 24.4889C187.911 24.7376 188.006 24.9586 188.196 25.1519C188.386 25.3453 188.63 25.442 188.929 25.442H199.593V29.5028H187.545Z" fill="white"/>
<path d="M131.48 30C129.958 30 128.573 29.6542 127.323 28.9627C126.1 28.2434 125.136 27.2614 124.429 26.0166C123.75 24.7441 123.411 23.2918 123.411 21.6598V7.75934C123.411 7.1231 123.261 6.55602 122.962 6.05809C122.664 5.5325 122.256 5.11756 121.74 4.81328C121.251 4.50899 120.707 4.35684 120.11 4.35684C119.512 4.35684 118.969 4.50899 118.48 4.81328C117.991 5.11756 117.597 5.5325 117.298 6.05809C116.999 6.55602 116.85 7.1231 116.85 7.75934V29.5436H112V8.38174C112 6.80498 112.34 5.39419 113.019 4.14937C113.698 2.8769 114.649 1.86722 115.871 1.12033C117.094 0.373441 118.507 0 120.11 0C121.74 0 123.166 0.373441 124.389 1.12033C125.611 1.86722 126.562 2.8769 127.241 4.14937C127.921 5.39419 128.26 6.80498 128.26 8.38174V22.2822C128.26 22.8907 128.41 23.4578 128.708 23.9834C129.007 24.4813 129.401 24.8824 129.89 25.1867C130.379 25.491 130.909 25.6432 131.48 25.6432C132.077 25.6432 132.621 25.491 133.11 25.1867C133.599 24.8824 133.993 24.4813 134.292 23.9834C134.59 23.4578 134.74 22.8907 134.74 22.2822V8.38174C134.74 6.80498 135.079 5.39419 135.759 4.14937C136.438 2.8769 137.389 1.86722 138.611 1.12033C139.861 0.373441 141.287 0 142.89 0C144.52 0 145.933 0.373441 147.129 1.12033C148.351 1.86722 149.302 2.8769 149.981 4.14937C150.66 5.39419 151 6.80498 151 8.38174V29.5436H146.11V7.75934C146.11 7.1231 145.96 6.55602 145.661 6.05809C145.39 5.5325 145.009 5.11756 144.52 4.81328C144.031 4.50899 143.488 4.35684 142.89 4.35684C142.293 4.35684 141.736 4.50899 141.219 4.81328C140.73 5.11756 140.336 5.5325 140.038 6.05809C139.739 6.55602 139.589 7.1231 139.589 7.75934V21.6598C139.589 23.2918 139.236 24.7441 138.53 26.0166C137.823 27.2614 136.859 28.2434 135.636 28.9627C134.441 29.6542 133.055 30 131.48 30Z" fill="url(#paint0_linear_943_232)"/>
<defs>
<linearGradient id="paint0_linear_943_232" x1="112" y1="15.1579" x2="151.997" y2="26.4752" gradientUnits="userSpaceOnUse">
<stop stop-color="#2593E2"/>
<stop offset="1" stop-color="#AEFFC0"/>
</linearGradient>
</defs>
</svg>
