<svg width="72" height="53" viewBox="0 0 72 53" fill="none" xmlns="http://www.w3.org/2000/svg">
<path d="M35.9624 53C33.1536 53 30.5956 52.3891 28.2884 51.1674C26.0313 49.8967 24.2508 48.1618 22.9467 45.9627C21.6928 43.7146 21.0658 41.1489 21.0658 38.2656V13.7082C21.0658 12.5841 20.79 11.5823 20.2383 10.7026C19.6865 9.77409 18.9342 9.04103 17.9812 8.50346C17.0784 7.96588 16.0752 7.69709 14.9718 7.69709C13.8683 7.69709 12.8652 7.96588 11.9624 8.50346C11.0596 9.04103 10.3323 9.77409 9.78056 10.7026C9.22883 11.5823 8.95298 12.5841 8.95298 13.7082V52.1936H0V14.8077C0 12.0221 0.626951 9.52973 1.88087 7.33056C3.13479 5.08252 4.8903 3.29875 7.14735 1.97924C9.4044 0.659745 12.0125 0 14.9718 0C17.9812 0 20.6144 0.659745 22.8715 1.97924C25.1285 3.29875 26.884 5.08252 28.1379 7.33056C29.3918 9.52973 30.0188 12.0221 30.0188 14.8077V39.3651C30.0188 40.4403 30.2947 41.4421 30.8464 42.3707C31.3981 43.2503 32.1254 43.959 33.0282 44.4965C33.931 45.0341 34.9091 45.3029 35.9624 45.3029C37.0658 45.3029 38.069 45.0341 38.9718 44.4965C39.8746 43.959 40.6019 43.2503 41.1536 42.3707C41.7053 41.4421 41.9812 40.4403 41.9812 39.3651V14.8077C41.9812 12.0221 42.6082 9.52973 43.8621 7.33056C45.116 5.08252 46.8714 3.29875 49.1285 1.97924C51.4357 0.659745 54.069 0 57.0282 0C60.0376 0 62.6458 0.659745 64.8527 1.97924C67.1097 3.29875 68.8652 5.08252 70.1191 7.33056C71.373 9.52973 72 12.0221 72 14.8077V52.1936H62.9718V13.7082C62.9718 12.5841 62.6959 11.5823 62.1442 10.7026C61.6426 9.77409 60.9404 9.04103 60.0376 8.50346C59.1348 7.96588 58.1317 7.69709 57.0282 7.69709C55.9248 7.69709 54.8966 7.96588 53.9436 8.50346C53.0408 9.04103 52.3135 9.77409 51.7618 10.7026C51.21 11.5823 50.9342 12.5841 50.9342 13.7082V38.2656C50.9342 41.1489 50.2822 43.7146 48.9781 45.9627C47.674 48.1618 45.8934 49.8967 43.6364 51.1674C41.4295 52.3891 38.8715 53 35.9624 53Z" fill="url(#paint0_linear_557_921)"/>
<defs>
<linearGradient id="paint0_linear_557_921" x1="1.1363e-06" y1="26.7789" x2="73.341" y2="48.4647" gradientUnits="userSpaceOnUse">
<stop stop-color="#2593E2"/>
<stop offset="1" stop-color="#AEFFC0"/>
</linearGradient>
</defs>
</svg>
