<svg xmlns="http://www.w3.org/2000/svg" width="16" height="16" fill="currentColor" viewBox="0 0 16 16">
  <path d="M12.695 5.026c.078-.05.323-.017.431 0a78.32 78.32 0 0 1 2.79 2.64c.16.361.09.662-.207.903a101.67 101.67 0 0 0-2.232 2.146 2.087 2.087 0 0 1-.35.272c-.527.074-.756-.17-.687-.732.067-.14.157-.258.271-.358.478-.43.945-.873 1.404-1.328-3.434-.012-7.17.011-10.605 0-.315-.001-.51-.117-.51-.545 0-.429.243-.544.51-.545l10.605-.034a53.038 53.038 0 0 1-1.61-1.55c-.17-.379-.134-.66.19-.869Z"/>
  <path d="M7.688.004 2.375.047C1.062.392.275 1.23.015 2.563a946.6 946.6 0 0 0 0 10.88c.187 1.082.776 1.858 1.766 2.328.251.107.511.18.782.219h5.125c.28-.14.38-.364.296-.672a.52.52 0 0 0-.296-.297l-4.72-.031c-.914-.072-1.534-.535-1.859-1.39a2.284 2.284 0 0 1-.093-.595A794.453 794.453 0 0 1 1.016 3c.073-1.049.62-1.7 1.64-1.953A216.83 216.83 0 0 1 7.687.984.458.458 0 0 0 8 .5a.485.485 0 0 0-.313-.496Z"/>
</svg>
