<svg xmlns="http://www.w3.org/2000/svg" width="16" height="16" fill="currentColor" viewBox="0 0 16 16">
  <path d="M7.5 0h1c1.572.275 2.499 1.144 3.063 2.64.492 1.983-.117 3.52-1.829 4.61-1.112.543-2.247.596-3.406.156C4.665 6.575 3.9 5.226 4.031 3.36c.203-1.306.875-2.29 2.016-2.953C6.474.186 7.03.061 7.5 0Zm-.047.953c-1.048.199-1.803.782-2.266 1.75-.529 1.717-.003 2.993 1.579 3.828.867.312 1.71.26 2.53-.156 1.336-.89 1.758-2.104 1.267-3.64C9.93 1.441 8.895.847 7.453.952Z"/>
  <path d="M12.29 16H3.5c-.998-.128-1.571-.665-2-1.578a2.797 2.797 0 0 1-.188-.719 9.617 9.617 0 0 1 .407-3.531 4.118 4.118 0 0 1 1.203-1.86 2.811 2.811 0 0 1 2.156-.562c.344.193.677.401 1 .625 1.192.692 2.4.723 3.625.094.38-.248.766-.487 1.156-.719 1.282-.128 2.256.357 2.922 1.453.5.948.781 1.958.844 3.031.045.5.045 1 0 1.5-.25 1.295-1.034 2.06-2.335 2.266ZM4.516 8.672a3.22 3.22 0 0 0-.72.234c-.485.32-.834.752-1.046 1.297a8.104 8.104 0 0 0-.469 3.438c.034.172.086.339.156.5.38.62.937.916 1.672.89 2.573.021 5.146.021 7.72 0 .188-.008.376-.029.562-.062.685-.176 1.107-.608 1.265-1.297a9.67 9.67 0 0 0-.031-1.688 5.81 5.81 0 0 0-.688-2.28c-.39-.683-.978-1.021-1.765-1.017l-.875.563c-1.286.728-2.619.833-4 .313a11.091 11.091 0 0 1-1.531-.876 1.014 1.014 0 0 0-.25-.015Z"/>
</svg>
