<svg xmlns="http://www.w3.org/2000/svg" width="16" height="16" fill="currentColor" viewBox="0 0 16 16">
  <path d="M6.212 0h1c1.571.275 2.498 1.144 3.062 2.64.493 1.983-.117 3.52-1.828 4.61-1.112.543-2.248.596-3.406.156-1.663-.831-2.429-2.18-2.297-4.047.202-1.306.874-2.29 2.015-2.953.427-.22.985-.345 1.454-.406Zm-.047.953c-1.049.199-1.804.782-2.266 1.75-.53 1.717-.003 2.993 1.578 3.828.867.312 1.711.26 2.531-.156 1.335-.89 1.757-2.104 1.266-3.64C8.643 1.441 7.606.847 6.164.952Z"/>
  <path d="M11.002 16h-8.79c-.999-.128-1.572-.665-2-1.578a2.797 2.797 0 0 1-.188-.719c0-1.203.052-2.38.406-3.531a4.118 4.118 0 0 1 1.203-1.86A2.811 2.811 0 0 1 3.79 7.75c.344.193.677.401 1 .625 1.191.692 2.4.723 3.625.094.38-.248.765-.487 1.156-.719 1.281-.128 2.263.154 2.929 1.25.201.33 0 .5 0 .5l-1 6s0 .5-.498.5ZM3.226 8.672a3.22 3.22 0 0 0-.719.234c-.485.32-.834.752-1.046 1.297a8.104 8.104 0 0 0-.47 3.438c.034.172.086.339.157.5.38.62.937.916 1.672.89 2.573.021 5.106-.01 7.679-.031.19-.008 1 0 1 .5l1-6s-.614.71-1 0c-.39-.682-.83-.817-1.617-.813l-.875.563c-1.285.728-2.618.833-4 .313a11.092 11.092 0 0 1-1.53-.876 1.014 1.014 0 0 0-.25-.015Z"/>
  <path d="M14 10.5c0-.5-1-.5-1 0V12h-1.5c-.5 0-.5 1 0 1H13v1.5c0 .5 1 .5 1 0V13h1.5c.5 0 .5-1 0-1H14v-1.5Z"/>
</svg>
