<svg width="20" height="20" viewBox="0 0 20 20" fill="none" xmlns="http://www.w3.org/2000/svg">
    <g>
        <path fill-rule="evenodd" clip-rule="evenodd"
            d="M9.55115 2.00078C12.774 1.9629 15.2362 3.29759 16.9379 6.00484C18.3905 8.75784 18.3531 11.4896 16.8257 14.2001C15.331 16.5047 13.2054 17.7708 10.4488 17.9983C7.22489 18.0543 4.76264 16.7258 3.062 14.013C1.60954 11.2586 1.64694 8.52684 3.17421 5.81774C4.67655 3.51581 6.80222 2.24349 9.55115 2.00078ZM9.51375 3.2731C12.6106 3.22789 14.836 4.58752 16.1899 7.352C17.1948 10.0081 16.7833 12.4155 14.9557 14.5743C12.8383 16.6708 10.3636 17.2383 7.53147 16.2769C5.01443 15.167 3.5994 13.2398 3.28641 10.4954C3.2047 7.72067 4.33298 5.60638 6.67124 4.1525C7.56412 3.66541 8.51165 3.37227 9.51375 3.2731Z"
            fill="currentColor" />
        <path fill-rule="evenodd" clip-rule="evenodd"
            d="M9.77556 6.52874C10.1841 6.44922 10.4646 6.5989 10.6171 6.97779C10.642 8.17526 10.642 9.37274 10.6171 10.5702C10.4621 10.9876 10.1691 11.1311 9.73816 11.0006C9.55403 10.9135 9.43558 10.77 9.38284 10.5702C9.3579 9.37274 9.3579 8.17526 9.38284 6.97779C9.45525 6.77452 9.58616 6.62483 9.77556 6.52874Z"
            fill="currentColor" />
        <path fill-rule="evenodd" clip-rule="evenodd"
            d="M9.85036 12.0296C10.5737 12.0361 10.8917 12.3979 10.8041 13.1148C10.6262 13.5626 10.2958 13.756 9.81296 13.6949C9.21233 13.4647 9.03153 13.0468 9.27064 12.4413C9.41882 12.2363 9.61208 12.0991 9.85036 12.0296Z"
            fill="currentColor" />
    </g>
</svg>