<svg width="20" height="20" viewBox="0 0 20 20" fill="none" xmlns="http://www.w3.org/2000/svg">
    <g>
        <path fill-rule="evenodd" clip-rule="evenodd"
            d="M18 4.1296C18 6.04729 18 7.96501 18 9.8827C17.7844 10.2991 17.4615 10.4103 17.0312 10.2164C16.9097 10.1339 16.8212 10.0227 16.7656 9.8827C16.7646 8.0172 16.7438 6.15247 16.7031 4.28853C16.5358 3.66558 16.1348 3.33184 15.5 3.2873C11.8333 3.2661 8.16666 3.2661 4.5 3.2873C3.8652 3.33184 3.46416 3.66558 3.29688 4.28853C3.26105 5.75515 3.24543 7.22257 3.25 8.69076C3.25521 10.0734 3.26042 11.4561 3.26562 12.8387C3.34375 13.5962 3.75521 14.0148 4.5 14.0942C5.60416 14.1048 6.70834 14.1154 7.8125 14.126C7.94663 14.1704 8.056 14.2498 8.14062 14.3644C8.69272 15.0849 9.24478 15.8053 9.79688 16.5258C9.90969 16.7226 10.0347 16.7332 10.1719 16.5576C10.7448 15.8053 11.3177 15.0531 11.8906 14.3008C11.9707 14.23 12.0593 14.1717 12.1562 14.126C13.2708 14.1154 14.3854 14.1048 15.5 14.0942C16.3411 13.98 16.7629 13.4874 16.7656 12.6162C16.9326 12.2586 17.2086 12.1261 17.5938 12.2189C17.787 12.2937 17.9224 12.4261 18 12.6162C18 12.8281 18 13.04 18 13.2519C17.8221 14.1686 17.3117 14.8202 16.4688 15.2067C16.2865 15.2791 16.099 15.3321 15.9062 15.3656C14.8333 15.3762 13.7604 15.3868 12.6875 15.3974C12.1161 16.1588 11.5328 16.911 10.9375 17.6541C10.5283 17.9806 10.07 18.0759 9.5625 17.9402C9.39234 17.8802 9.23609 17.7954 9.09375 17.6859C8.485 16.9453 7.89125 16.1931 7.3125 15.4292C6.23978 15.3982 5.16688 15.377 4.09375 15.3656C3.1869 15.1955 2.54628 14.6817 2.17188 13.824C2.10414 13.6324 2.04684 13.4416 2 13.2519C2 10.2111 2 7.17038 2 4.1296C2.24438 2.96458 2.9423 2.26001 4.09375 2.01589C8.03125 1.9947 11.9688 1.9947 15.9062 2.01589C17.0448 2.27277 17.7427 2.97734 18 4.1296Z"
            fill="currentColor" />
        <path fill-rule="evenodd" clip-rule="evenodd"
            d="M9.78125 5.43279C10.4109 5.36868 10.687 5.65474 10.6094 6.29099C10.4424 6.64863 10.1664 6.78108 9.78125 6.6883C9.42963 6.51847 9.29941 6.23771 9.39063 5.84599C9.46416 5.6494 9.59438 5.51168 9.78125 5.43279Z"
            fill="currentColor" />
        <path fill-rule="evenodd" clip-rule="evenodd"
            d="M9.78125 7.62596C10.1663 7.54894 10.4423 7.68667 10.6094 8.03916C10.6302 9.33177 10.6302 10.6243 10.6094 11.9169C10.4006 12.3366 10.0828 12.4479 9.65625 12.2507C9.53469 12.1682 9.44616 12.0569 9.39062 11.9169C9.36978 10.6243 9.36978 9.33177 9.39062 8.03916C9.46416 7.84257 9.59438 7.70485 9.78125 7.62596Z"
            fill="currentColor" />
    </g>
</svg>