<svg width="20" height="20" viewBox="0 0 20 20" fill="none" xmlns="http://www.w3.org/2000/svg">
    <g>
        <path fill-rule="evenodd" clip-rule="evenodd"
            d="M9.3125 2C9.77084 2 10.2292 2 10.6875 2C13.5535 2.34656 15.6942 3.77364 17.1094 6.28125C17.5963 7.23972 17.8931 8.25016 18 9.3125C18 9.77084 18 10.2292 18 10.6875C17.6081 13.8208 15.9831 16.0552 13.125 17.3906C12.338 17.7124 11.5255 17.9155 10.6875 18C10.2292 18 9.77084 18 9.3125 18C6.17919 17.6081 3.94481 15.9831 2.60938 13.125C2.28762 12.338 2.0845 11.5255 2 10.6875C2 10.2292 2 9.77084 2 9.3125C2.3919 6.17919 4.0169 3.94481 6.875 2.60938C7.662 2.28762 8.4745 2.0845 9.3125 2ZM9.625 3.25C12.3817 3.22419 14.4702 4.38044 15.8906 6.71875C17.0711 9.00206 17.0294 11.2625 15.7656 13.5C14.1624 15.8978 11.9176 16.9551 9.03125 16.6719C6.86497 16.2952 5.22434 15.165 4.10938 13.2812C2.92891 10.9979 2.97058 8.7375 4.23438 6.5C5.49856 4.54202 7.29544 3.45868 9.625 3.25Z"
            fill="currentColor" />
        <path fill-rule="evenodd" clip-rule="evenodd"
            d="M13.1875 7.03125C13.7187 7.06763 13.9426 7.34888 13.8594 7.875C13.8281 7.9375 13.7969 8 13.7656 8.0625C12.3229 9.65103 10.8802 11.2396 9.4375 12.8281C9.14862 13.0189 8.86737 13.0085 8.59375 12.7969C7.83944 12.0113 7.07381 11.2353 6.29687 10.4688C6.13744 10.2778 6.08534 10.0591 6.14062 9.8125C6.35141 9.36722 6.67953 9.25784 7.125 9.48438C7.76653 10.1155 8.39672 10.7561 9.01562 11.4062C10.2912 9.96403 11.5881 8.54216 12.9062 7.14062C12.9987 7.0905 13.0925 7.05403 13.1875 7.03125Z"
            fill="currentColor" />
    </g>
</svg>