<svg xmlns="http://www.w3.org/2000/svg" width="137" height="136" fill="currentColor" viewBox="0 0 137 136">
  <path d="M136.867 37.055v2.39a82.363 82.363 0 0 0-1.992 6.11c-.515 1.032-1.355 1.475-2.523 1.328a44.223 44.223 0 0 0-6.11-.399 18.565 18.565 0 0 1-3.054 3.586 2.548 2.548 0 0 0-.399 1.196 77.473 77.473 0 0 1 1.594 6.109 2.907 2.907 0 0 1-.531 1.86 78.137 78.137 0 0 1-7.704 3.85 4.091 4.091 0 0 1-2.257-1.593 36.798 36.798 0 0 0-3.321-4.117 65.307 65.307 0 0 0-5.843.664 44.145 44.145 0 0 1-3.719 6.242 5.446 5.446 0 0 1-2.39 0 41.543 41.543 0 0 1-7.04-2.523 4.753 4.753 0 0 1-.398-1.992c.15-1.73.327-3.456.53-5.18-.087-.354-.176-.709-.265-1.063a28.081 28.081 0 0 1-3.984-3.32 76.05 76.05 0 0 0-6.773 1.727c-.748.024-1.368-.242-1.86-.797-1.15-2.214-2.302-4.427-3.453-6.64a3.318 3.318 0 0 1 0-1.86 64.16 64.16 0 0 1 5.313-4.516 45.686 45.686 0 0 0-.532-6.11c-1.904-1.017-3.807-2.036-5.71-3.054a2.278 2.278 0 0 1-.798-1.726 45.916 45.916 0 0 1 2.657-8.368 6.432 6.432 0 0 1 2.39-.398c1.691.1 3.373.276 5.047.531l.797-.265a14.288 14.288 0 0 1 3.32-3.985 135.606 135.606 0 0 0-1.726-7.039c-.037-.715.228-1.29.797-1.726a72.814 72.814 0 0 1 7.437-3.72c.478.021.92.154 1.328.4a71.22 71.22 0 0 0 4.649 5.445 30.578 30.578 0 0 1 5.445-.665 58.616 58.616 0 0 0 3.055-5.71 2.529 2.529 0 0 1 1.859-1.063 185.2 185.2 0 0 1 7.57 2.258c.88.416 1.323 1.124 1.329 2.125-.24 2.089-.506 4.17-.797 6.242a96.894 96.894 0 0 1 4.648 3.984 19.953 19.953 0 0 1 7.57-1.726 32.808 32.808 0 0 1 4.516 8.101 3.395 3.395 0 0 1-.797 1.594 104.915 104.915 0 0 1-4.914 3.985c.205 1.928.382 3.877.531 5.843a195.717 195.717 0 0 0 5.977 3.32c.15.265.327.486.531.665ZM111.633 5.18a41.096 41.096 0 0 1-2.789 5.578c-1.09 1.087-2.374 1.352-3.852.797a38.412 38.412 0 0 1-6.64.664c-1.54-1.674-3.045-3.4-4.516-5.18a27.54 27.54 0 0 1-3.188 1.727 25.837 25.837 0 0 1 1.727 7.304 56.307 56.307 0 0 0-5.977 7.04 30.394 30.394 0 0 1-6.109-.4l-1.062.267a20.776 20.776 0 0 1-1.063 3.054l5.313 2.922.93.93c.093 3.216.358 6.403.796 9.562a44.07 44.07 0 0 1-5.18 4.782 27.517 27.517 0 0 0 1.727 3.187 65.531 65.531 0 0 1 6.242-1.86c.478.021.92.154 1.328.4a21.846 21.846 0 0 0 6.243 5.179c.28.719.413 1.471.398 2.258a111.294 111.294 0 0 0-.398 5.445c1.005.374 2.023.728 3.054 1.062 1.27-1.96 2.509-3.952 3.719-5.976a80.81 80.81 0 0 0 8.898-1.195 3.12 3.12 0 0 1 1.727.796 98.982 98.982 0 0 1 3.851 4.782 52.802 52.802 0 0 0 3.055-1.992l-1.461-4.915a5.448 5.448 0 0 1 0-2.39 51.834 51.834 0 0 0 5.711-6.774 24.478 24.478 0 0 1 6.641.399c.25-.029.471-.117.664-.266.289-1.024.599-2.042.93-3.054a23.683 23.683 0 0 0-5.047-2.922 2.458 2.458 0 0 1-1.196-1.461 33.373 33.373 0 0 0-.929-8.367 2.766 2.766 0 0 1 1.062-1.86 45.055 45.055 0 0 0 4.516-3.719 53.021 53.021 0 0 0-1.992-3.054l-6.11 1.86-1.195-.4a20.856 20.856 0 0 0-6.109-5.046c-.556-.492-.822-1.112-.797-1.86a57.26 57.26 0 0 0 .531-6.242 19.494 19.494 0 0 1-3.453-1.062Z"/>
  <path d="M103.93 18.46c8.378.016 13.47 4.09 15.273 12.22.482 8.192-3.193 13.46-11.023 15.804-7.295.936-12.563-1.853-15.805-8.367-2.354-7.28-.45-13.168 5.71-17.664a20.771 20.771 0 0 1 5.845-1.992Zm-.266 4.25c-5.611 1.586-8.312 5.305-8.102 11.157 1.309 5.9 4.984 8.778 11.024 8.633 6.298-1.567 9.087-5.595 8.367-12.086-1.777-5.448-5.54-8.016-11.289-7.703ZM.867 80.883v-2.39a186.614 186.614 0 0 0 3.055-9.563c.208-.475.518-.873.93-1.196 3.9.107 7.796.284 11.687.532a40.798 40.798 0 0 1 6.11-7.438 239.7 239.7 0 0 1-3.188-10.492c.146-.87.589-1.533 1.328-1.992a184.26 184.26 0 0 1 10.227-5.18c.912.115 1.62.558 2.125 1.328l6.109 7.703c.89-.348 1.82-.57 2.79-.664 2.302-.216 4.604-.437 6.905-.664a125.211 125.211 0 0 1 5.313-9.562l1.328-.532c4.02 1.148 7.96 2.476 11.82 3.985.267.54.4 1.115.399 1.726-.39 3.414-.7 6.823-.93 10.227a39.221 39.221 0 0 1 7.305 5.977 230.97 230.97 0 0 0 10.625-2.79c.693.015 1.269.28 1.726.797a97.936 97.936 0 0 1 5.18 10.625 2.622 2.622 0 0 1-.531 1.727l-8.235 6.64a45.26 45.26 0 0 1 1.196 9.696 161.56 161.56 0 0 0 9.43 5.18c.37.461.547.993.53 1.593-.909 3.614-1.927 7.2-3.054 10.758-.424 1-1.177 1.531-2.258 1.594a128.12 128.12 0 0 0-10.36-.93 39.252 39.252 0 0 1-5.976 7.305 142.962 142.962 0 0 0 2.656 9.562c.247.995.114 1.924-.398 2.789-3.57 1.963-7.2 3.778-10.89 5.446a2.153 2.153 0 0 1-1.462-.532l-6.507-8.101c-3.251.424-6.527.734-9.829.93a234.04 234.04 0 0 1-5.046 9.296 3.114 3.114 0 0 1-1.727.797l-11.023-3.32-.93-.93c.029-3.83.338-7.637.93-11.422a39.386 39.386 0 0 1-7.438-6.242 143.716 143.716 0 0 0-9.562 2.656c-1.252.384-2.27.074-3.055-.929a141.313 141.313 0 0 1-5.18-10.36 3.39 3.39 0 0 1 .797-1.593l7.703-6.375.266-.664a69.17 69.17 0 0 1-1.063-9.43 264.169 264.169 0 0 1-9.828-5.578Zm55.516-35.328a217.433 217.433 0 0 1-4.649 9.03c-.24.32-.55.541-.93.665l-7.171.266a44.89 44.89 0 0 1-6.11.797 1.853 1.853 0 0 1-.93-.665l-6.109-7.703a121.854 121.854 0 0 1-5.976 3.188l-.266.531a834.089 834.089 0 0 0 2.922 9.961l-.398 1.195a30.32 30.32 0 0 0-7.438 9.032c-.73.674-1.616.94-2.656.796-3.144-.274-6.287-.54-9.43-.796a61.665 61.665 0 0 1-1.86 6.64 165 165 0 0 0 9.43 5.578c.268.54.4 1.116.399 1.727a34.53 34.53 0 0 0 1.062 11.289c-.02.478-.153.92-.398 1.328a154.71 154.71 0 0 0-8.102 6.774 72.631 72.631 0 0 0 3.72 6.242l9.03-2.789a2.445 2.445 0 0 1 1.594 0 45.238 45.238 0 0 0 9.563 7.836 2.96 2.96 0 0 1 .797 1.859c-.39 3.362-.744 6.727-1.063 10.094 2.298.664 4.6 1.239 6.906 1.726a151.724 151.724 0 0 1 5.313-9.297 3.424 3.424 0 0 1 1.594-.398 32.067 32.067 0 0 0 11.156-1.063c.478.021.92.154 1.328.399a147.176 147.176 0 0 1 6.773 8.101 42.996 42.996 0 0 0 6.243-3.586c-.95-3.137-1.88-6.28-2.79-9.429a2.217 2.217 0 0 1 .266-1.86 44.542 44.542 0 0 0 8.102-9.695c3.708.004 7.382.314 11.023.93a315.36 315.36 0 0 0 2.258-6.906 105.654 105.654 0 0 0-8.766-4.915l-.93-.93-.265-7.171a39.168 39.168 0 0 1-.797-6.375 530.605 530.605 0 0 1 8.102-7.305 70.777 70.777 0 0 0-3.453-6.242 44.786 44.786 0 0 1-10.891 2.79 33.99 33.99 0 0 0-9.297-7.704c-.319-.24-.54-.55-.664-.93.145-3.653.41-7.284.797-10.89a59.931 59.931 0 0 0-7.04-2.125Z"/>
  <path d="M46.023 65.21c12.472.213 20.308 6.323 23.508 18.33 1.492 11.938-3.157 20.482-13.945 25.632-11.762 3.518-21.015.197-27.758-9.961-4.471-9.328-3.586-18.093 2.656-26.297 4.228-4.526 9.408-7.094 15.54-7.703Zm-.796 4.25c-4.807.879-8.836 3.18-12.086 6.907-5.62 8.091-5.443 16.06.53 23.906 6.658 6.591 14.228 7.875 22.712 3.852 8.341-5.632 11.042-13.291 8.101-22.977-3.769-8.195-10.188-12.091-19.257-11.687Z"/>
</svg>
