<svg width="20" height="20" viewBox="0 0 20 20" fill="none" xmlns="http://www.w3.org/2000/svg">
    <path fill-rule="evenodd" clip-rule="evenodd"
        d="M9.8125 2C9.9375 2 10.0625 2 10.1875 2C12.7226 3.19974 15.2642 4.39245 17.8125 5.57812C17.8944 5.64419 17.9569 5.72231 18 5.8125C18 8.77084 18 11.7292 18 14.6875C17.9205 14.8449 17.7955 14.9543 17.625 15.0156C15.1395 16.0034 12.6604 16.9983 10.1875 18C10.0625 18 9.9375 18 9.8125 18C7.27716 16.967 4.73548 15.9409 2.1875 14.9219C2.1056 14.8558 2.0431 14.7777 2 14.6875C2 11.7292 2 8.77084 2 5.8125C2.10977 5.61616 2.27643 5.48594 2.5 5.42188C4.9441 4.28828 7.38159 3.14765 9.8125 2ZM9.9375 3.09375C9.99059 3.08874 10.0427 3.09395 10.0938 3.10938C12.1193 4.05448 14.1402 5.0076 16.1562 5.96875C15.3882 6.28728 14.6174 6.59978 13.8438 6.90625C11.7408 6.01259 9.63669 5.12195 7.53125 4.23438C8.33619 3.85267 9.13825 3.47246 9.9375 3.09375ZM6.25 4.8125C8.32209 5.69225 10.395 6.57244 12.4688 7.45312C11.651 7.78125 10.8333 8.10938 10.0156 8.4375C7.94978 7.62744 5.8925 6.79931 3.84375 5.95312C4.64867 5.57141 5.45075 5.19122 6.25 4.8125ZM3 6.75C5.15284 7.62047 7.30909 8.48503 9.46875 9.34375C9.5 11.802 9.51041 14.2603 9.5 16.7188C7.34125 15.8738 5.185 15.0197 3.03125 14.1562C3 11.6876 2.98958 9.21884 3 6.75ZM16.9062 6.78125C16.9375 6.78125 16.9688 6.78125 17 6.78125C17.0104 9.23966 17 11.698 16.9688 14.1562C14.8134 15.0118 12.6624 15.8764 10.5156 16.75C10.4896 14.2812 10.4948 11.8124 10.5312 9.34375C12.6661 8.50519 14.7911 7.65103 16.9062 6.78125Z"
        fill="currentColor" />
</svg>