<svg width="24" height="24" viewBox="0 0 24 24" fill="none" xmlns="http://www.w3.org/2000/svg">
    <path
        d="M2.56344 22.0782C2.60661 22.3509 2.8627 22.537 3.13545 22.4939C3.4082 22.4507 3.59431 22.1946 3.55115 21.9218L2.56344 22.0782ZM19.5 22C19.5 22.2761 19.7239 22.5 20 22.5C20.2761 22.5 20.5 22.2761 20.5 22L19.5 22ZM17.0796 7.88235C17.0796 10.8417 14.6077 13.2647 11.5286 13.2647V14.2647C15.1332 14.2647 18.0796 11.4205 18.0796 7.88235H17.0796ZM11.5286 13.2647C8.4495 13.2647 5.97767 10.8417 5.97767 7.88235H4.97767C4.97767 11.4205 7.92404 14.2647 11.5286 14.2647V13.2647ZM5.97767 7.88235C5.97767 4.92299 8.4495 2.5 11.5286 2.5V1.5C7.92404 1.5 4.97767 4.34425 4.97767 7.88235H5.97767ZM11.5286 2.5C14.6077 2.5 17.0796 4.92299 17.0796 7.88235H18.0796C18.0796 4.34425 15.1332 1.5 11.5286 1.5V2.5ZM3.55115 21.9218C3.36985 20.7762 3.6425 19.0074 4.81087 17.5308C5.96208 16.076 8.02578 14.8529 11.5286 14.8529V13.8529C7.77037 13.8529 5.39669 15.1789 4.02667 16.9103C2.6738 18.6201 2.34134 20.6747 2.56344 22.0782L3.55115 21.9218ZM11.5286 14.8529C15.0278 14.8529 16.9876 16.073 18.0891 17.523C19.21 18.9986 19.5 20.7889 19.5 22L20.5 22C20.5 20.6621 20.1849 18.6288 18.8854 16.9181C17.5665 15.1819 15.2906 13.8529 11.5286 13.8529V14.8529Z"
        fill="currentColor" />
</svg>