<svg xmlns="http://www.w3.org/2000/svg" width="24" height="24" fill="currentColor" viewBox="0 0 24 24">
  <path d="M10 2c2-.01 3 0 4 0 2 0 3 1.5 3 4 0 0 .054 9.751 0 12 0 2.5-1 4-3 4a85.21 85.21 0 0 1-4 0c-2 0-2.938-1.5-2.969-4C7 15.5 7 6 7 6c0-2.5 1-3.99 3-4Zm0 1C8.5 3 8 4.5 8 6a767.524 767.524 0 0 0 0 12c0 1.5.5 3 2 3h4c1.5 0 2-1.5 2-3 .046-4.283.077-7.72 0-12-.027-1.5-.5-3-2-3-1.062-.023-2.937 0-4 0Zm-8 .5C3.528 3.51 4 4 4 6c.031 4.344.031 7.656 0 12-.016 2.168-.47 2.512-2 2.5-.314-.003-.5-.076-.5-.5 0-.302.129-.5.5-.5s.975 0 .984-1.148c.012-1.352-.015-11.649 0-12.75C3 4.5 2.22 4.5 2 4.5c-.219 0-.5 0-.5-.5s.264-.501.5-.5Zm20 0c-1.528.01-2 .5-2 2.5a769.223 769.223 0 0 0 0 12c.016 2.168.47 2.512 2 2.5.314-.003.5-.076.5-.5 0-.302-.129-.5-.5-.5s-.975 0-.984-1.148c-.012-1.352.015-11.649 0-12.75C21 4.5 21.78 4.5 22 4.5c.219 0 .5 0 .5-.5s-.264-.502-.5-.5Z"/>
</svg>
