<svg width="16" height="16" viewBox="0 0 16 16" fill="none" xmlns="http://www.w3.org/2000/svg">
<path d="M13.5006 15.3382C13.6874 15.5416 14.0036 15.5551 14.2071 15.3683C14.4105 15.1816 14.424 14.8653 14.2372 14.6618L13.5006 15.3382ZM14.2372 14.6618L12.8389 13.1388L12.1023 13.8151L13.5006 15.3382L14.2372 14.6618ZM13.5 7.62839C13.5 11.0223 10.8045 13.7568 7.5 13.7568V14.7568C11.3752 14.7568 14.5 11.556 14.5 7.62839H13.5ZM7.5 13.7568C4.19547 13.7568 1.5 11.0223 1.5 7.62839H0.5C0.5 11.556 3.62483 14.7568 7.5 14.7568V13.7568ZM1.5 7.62839C1.5 4.23451 4.19547 1.5 7.5 1.5V0.5C3.62483 0.5 0.5 3.70075 0.5 7.62839H1.5ZM7.5 1.5C10.8045 1.5 13.5 4.23451 13.5 7.62839H14.5C14.5 3.70075 11.3752 0.5 7.5 0.5V1.5Z" fill="#dfdfdf"/>
</svg>
